# xmcd
#
# Track frame offsets:
#	150
#	20547
#	38640
#	56532
#	74360
#	94905
#	119222
#	133607
#	157897
#	175730
#	193590
#	203615
#	219082
#
# Disc length: 3097 seconds
#
# Revision: 2
# Processed by: cddbd v1.4PL0 Copyright (c) Steve Scherf et al.
# Submitted via: audiograbber 1.81.03
#
DISCID=b10c170d
DTITLE=Little Charlie and The Nightcats - Night Vision
DYEAR=1993
DGENRE=Blues
TTITLE0=My Next Ex-Wife
TTITLE1=I'll Never Do That No More
TTITLE2=You Win
TTITLE3=Sure Seems Strange
TTITLE4=Can't Keep It Up
TTITLE5=Dog Eat Dog
TTITLE6=I Dare You Baby
TTITLE7=Crying Won't Help You 
TTITLE8=Grow Up, Baby
TTITLE9=Califonia On My Mind
TTITLE10=Backfire
TTITLE11=Pressing On
TTITLE12=Buzzsaw
EXTD=
EXTT0=
EXTT1=
EXTT2=
EXTT3=
EXTT4=
EXTT5=
EXTT6=
EXTT7=
EXTT8=
EXTT9=
EXTT10=
EXTT11=
EXTT12=
PLAYORDER=
